<svg xmlns="http://www.w3.org/2000/svg" xmlns:xlink="http://www.w3.org/1999/xlink" version="1.1" width="256" height="256" viewBox="0 0 256 256" xml:space="preserve">

<defs>
</defs>
<g style="stroke: none; stroke-width: 0; stroke-dasharray: none; stroke-linecap: butt; stroke-linejoin: miter; stroke-miterlimit: 10; fill: none; fill-rule: nonzero; opacity: 1;" transform="translate(1.4065934065934016 1.4065934065934016) scale(2.81 2.81)" >
	<path d="M 11.58 54.882 v 31.965 c 0 1.741 1.412 3.153 3.153 3.153 h 60.534 c 1.741 0 3.153 -1.412 3.153 -3.153 V 54.882 C 56.073 47.881 33.792 47.838 11.58 54.882 z" style="stroke: none; stroke-width: 1; stroke-dasharray: none; stroke-linecap: butt; stroke-linejoin: miter; stroke-miterlimit: 10; fill: rgb(184,53,53); fill-rule: nonzero; opacity: 1;" transform=" matrix(1 0 0 1 0 0) " stroke-linecap="round" />
	<path d="M 78.42 54.882 V 18.345 C 69.386 13.658 63.133 7.61 60.075 0 H 14.733 c -1.741 0 -3.153 1.412 -3.153 3.153 v 51.729 H 78.42 z" style="stroke: none; stroke-width: 1; stroke-dasharray: none; stroke-linecap: butt; stroke-linejoin: miter; stroke-miterlimit: 10; fill: rgb(233,233,224); fill-rule: nonzero; opacity: 1;" transform=" matrix(1 0 0 1 0 0) " stroke-linecap="round" />
	<path d="M 78.42 18.345 H 62.948 c -1.587 0 -2.873 -1.286 -2.873 -2.873 V 0 L 78.42 18.345 z" style="stroke: none; stroke-width: 1; stroke-dasharray: none; stroke-linecap: butt; stroke-linejoin: miter; stroke-miterlimit: 10; fill: rgb(217,215,202); fill-rule: nonzero; opacity: 1;" transform=" matrix(1 0 0 1 0 0) " stroke-linecap="round" />
	<path d="M 29.223 80.373 h -4.552 c -2.024 0 -3.671 -1.646 -3.671 -3.671 v -8.367 c 0 -2.024 1.647 -3.671 3.671 -3.671 h 4.552 c 0.829 0 1.5 0.672 1.5 1.5 s -0.671 1.5 -1.5 1.5 h -4.552 c -0.37 0 -0.671 0.301 -0.671 0.671 v 8.367 c 0 0.37 0.301 0.671 0.671 0.671 h 4.552 c 0.829 0 1.5 0.672 1.5 1.5 S 30.052 80.373 29.223 80.373 z" style="stroke: none; stroke-width: 1; stroke-dasharray: none; stroke-linecap: butt; stroke-linejoin: miter; stroke-miterlimit: 10; fill: rgb(249,249,249); fill-rule: nonzero; opacity: 1;" transform=" matrix(1 0 0 1 0 0) " stroke-linecap="round" />
	<path d="M 39.423 80.373 h -4.849 c -0.829 0 -1.5 -0.672 -1.5 -1.5 s 0.671 -1.5 1.5 -1.5 h 4.849 c 0.207 0 0.375 -0.168 0.375 -0.374 v -2.605 c 0 -0.207 -0.168 -0.375 -0.375 -0.375 h -2.975 c -1.861 0 -3.375 -1.514 -3.375 -3.374 v -2.605 c 0 -1.861 1.514 -3.375 3.375 -3.375 h 3.301 c 0.829 0 1.5 0.672 1.5 1.5 s -0.671 1.5 -1.5 1.5 h -3.301 c -0.207 0 -0.375 0.168 -0.375 0.375 v 2.605 c 0 0.206 0.168 0.374 0.375 0.374 h 2.975 c 1.861 0 3.375 1.514 3.375 3.375 v 2.605 C 42.798 78.859 41.284 80.373 39.423 80.373 z" style="stroke: none; stroke-width: 1; stroke-dasharray: none; stroke-linecap: butt; stroke-linejoin: miter; stroke-miterlimit: 10; fill: rgb(249,249,249); fill-rule: nonzero; opacity: 1;" transform=" matrix(1 0 0 1 0 0) " stroke-linecap="round" />
	<path d="M 51.672 80.373 h -4.849 c -0.829 0 -1.5 -0.672 -1.5 -1.5 s 0.671 -1.5 1.5 -1.5 h 4.849 c 0.206 0 0.374 -0.168 0.374 -0.374 v -2.605 c 0 -0.207 -0.168 -0.375 -0.374 -0.375 h -2.975 c -1.86 0 -3.374 -1.514 -3.374 -3.374 v -2.605 c 0 -1.861 1.514 -3.375 3.374 -3.375 h 3.301 c 0.828 0 1.5 0.672 1.5 1.5 s -0.672 1.5 -1.5 1.5 h -3.301 c -0.206 0 -0.374 0.168 -0.374 0.375 v 2.605 c 0 0.206 0.168 0.374 0.374 0.374 h 2.975 c 1.86 0 3.374 1.514 3.374 3.375 v 2.605 C 55.046 78.859 53.532 80.373 51.672 80.373 z" style="stroke: none; stroke-width: 1; stroke-dasharray: none; stroke-linecap: butt; stroke-linejoin: miter; stroke-miterlimit: 10; fill: rgb(249,249,249); fill-rule: nonzero; opacity: 1;" transform=" matrix(1 0 0 1 0 0) " stroke-linecap="round" />
	<path d="M 65.329 80.373 h -4.553 c -0.828 0 -1.5 -0.672 -1.5 -1.5 s 0.672 -1.5 1.5 -1.5 h 4.553 c 0.37 0 0.671 -0.301 0.671 -0.671 v -8.367 c 0 -0.37 -0.301 -0.671 -0.671 -0.671 h -4.553 c -0.828 0 -1.5 -0.672 -1.5 -1.5 s 0.672 -1.5 1.5 -1.5 h 4.553 c 2.024 0 3.671 1.646 3.671 3.671 v 8.367 C 69 78.727 67.354 80.373 65.329 80.373 z" style="stroke: none; stroke-width: 1; stroke-dasharray: none; stroke-linecap: butt; stroke-linejoin: miter; stroke-miterlimit: 10; fill: rgb(249,249,249); fill-rule: nonzero; opacity: 1;" transform=" matrix(1 0 0 1 0 0) " stroke-linecap="round" />
	<path d="M 67.5 74.019 h -6.724 c -0.828 0 -1.5 -0.672 -1.5 -1.5 s 0.672 -1.5 1.5 -1.5 H 67.5 c 0.828 0 1.5 0.672 1.5 1.5 S 68.328 74.019 67.5 74.019 z" style="stroke: none; stroke-width: 1; stroke-dasharray: none; stroke-linecap: butt; stroke-linejoin: miter; stroke-miterlimit: 10; fill: rgb(249,249,249); fill-rule: nonzero; opacity: 1;" transform=" matrix(1 0 0 1 0 0) " stroke-linecap="round" />
</g>
</svg>